<svg width="134" height="39" viewBox="0 0 134 39" fill="none" xmlns="http://www.w3.org/2000/svg">
<rect width="134" height="39" fill="#86BE37"/>
<path d="M11.8984 14.3438C11.8984 14.1159 11.918 13.9173 11.957 13.748C11.9961 13.5788 12.071 13.4388 12.1816 13.3281C12.2923 13.2109 12.4453 13.123 12.6406 13.0645C12.8359 13.0059 13.0898 12.9766 13.4023 12.9766H17.7578C18.207 12.9766 18.653 13.0059 19.0957 13.0645C19.5384 13.1165 19.9616 13.2077 20.3652 13.3379C20.7754 13.4681 21.153 13.6374 21.498 13.8457C21.8496 14.054 22.1523 14.3145 22.4062 14.627C22.6667 14.9329 22.8685 15.2943 23.0117 15.7109C23.1615 16.1211 23.2363 16.5964 23.2363 17.1367C23.2363 17.9375 23.1257 18.6146 22.9043 19.168C22.6895 19.7148 22.3965 20.1673 22.0254 20.5254C21.6543 20.8835 21.2214 21.1569 20.7266 21.3457C20.2383 21.5345 19.724 21.6712 19.1836 21.7559V25.418C19.1836 25.5677 19.1706 25.7337 19.1445 25.916C19.1185 26.0983 19.0534 26.2708 18.9492 26.4336C18.8451 26.5898 18.6855 26.7233 18.4707 26.834C18.2559 26.9447 17.9596 27 17.582 27H13.4023C13.0898 27 12.8359 26.9707 12.6406 26.9121C12.4453 26.8535 12.2923 26.7689 12.1816 26.6582C12.071 26.5475 11.9961 26.4076 11.957 26.2383C11.918 26.069 11.8984 25.8704 11.8984 25.6426V14.3438ZM21.8594 17.2832C21.8594 16.8926 21.8073 16.5345 21.7031 16.209C21.599 15.877 21.4395 15.5872 21.2246 15.3398C21.0098 15.0924 20.7331 14.8874 20.3945 14.7246C20.056 14.5618 19.6523 14.4512 19.1836 14.3926V20.457C19.6523 20.3854 20.056 20.2552 20.3945 20.0664C20.7331 19.8776 21.0098 19.6432 21.2246 19.3633C21.4395 19.0833 21.599 18.7676 21.7031 18.416C21.8073 18.0579 21.8594 17.6803 21.8594 17.2832ZM24.5352 12.3613C24.5352 12.14 24.5547 11.9447 24.5938 11.7754C24.6328 11.5996 24.7077 11.4564 24.8184 11.3457C24.929 11.235 25.082 11.1504 25.2773 11.0918C25.4727 11.0332 25.7266 11.0039 26.0391 11.0039H30.3164C30.6159 11.0039 30.8568 11.0332 31.0391 11.0918C31.2214 11.1439 31.3646 11.2253 31.4688 11.3359C31.5729 11.4466 31.6413 11.5866 31.6738 11.7559C31.7129 11.9251 31.7324 12.1237 31.7324 12.3516V25.6621C31.7324 25.8835 31.7129 26.0788 31.6738 26.248C31.6348 26.4108 31.5632 26.5508 31.459 26.668C31.3548 26.7786 31.2083 26.8633 31.0195 26.9219C30.8372 26.974 30.5964 27 30.2969 27H26.0391C25.7266 27 25.4727 26.9707 25.2773 26.9121C25.082 26.8535 24.929 26.7689 24.8184 26.6582C24.7077 26.5475 24.6328 26.4076 24.5938 26.2383C24.5547 26.069 24.5352 25.8704 24.5352 25.6426V12.3613ZM37.6211 27C37.2695 27 36.9147 26.9772 36.5566 26.9316C36.2051 26.8861 35.8665 26.8145 35.541 26.7168C35.222 26.6126 34.9225 26.4792 34.6426 26.3164C34.3626 26.1536 34.1185 25.9518 33.9102 25.7109C33.7083 25.4701 33.5488 25.1868 33.4316 24.8613C33.3145 24.5358 33.2559 24.1615 33.2559 23.7383C33.2559 23.1719 33.3633 22.6868 33.5781 22.2832C33.793 21.8796 34.0794 21.5443 34.4375 21.2773C34.8021 21.0104 35.2188 20.8053 35.6875 20.6621C36.1562 20.5189 36.6413 20.4277 37.1426 20.3887V19.7148C37.1426 19.4609 37.11 19.2591 37.0449 19.1094C36.9798 18.9596 36.8952 18.849 36.791 18.7773C36.6934 18.6992 36.5827 18.6504 36.459 18.6309C36.3418 18.6048 36.2279 18.5918 36.1172 18.5918C35.987 18.5918 35.847 18.6113 35.6973 18.6504C35.554 18.6895 35.4141 18.7383 35.2773 18.7969C35.1406 18.849 35.0104 18.9076 34.8867 18.9727C34.763 19.0378 34.6589 19.0964 34.5742 19.1484C34.5352 19.1745 34.4993 19.1973 34.4668 19.2168C34.4342 19.2363 34.4017 19.2461 34.3691 19.2461C34.3105 19.2461 34.2552 19.2038 34.2031 19.1191L33.8711 18.5918C33.8385 18.5462 33.8223 18.4974 33.8223 18.4453C33.8223 18.3932 33.8418 18.3477 33.8809 18.3086C33.9264 18.2695 33.9688 18.237 34.0078 18.2109C34.2227 18.0612 34.4961 17.9082 34.8281 17.752C35.1602 17.5957 35.5312 17.4557 35.9414 17.332C36.3581 17.2083 36.8073 17.1074 37.2891 17.0293C37.7708 16.9512 38.2689 16.9121 38.7832 16.9121C39.2715 16.9121 39.7467 16.9284 40.209 16.9609C40.6777 16.9935 41.1172 17.0651 41.5273 17.1758C41.944 17.2799 42.3216 17.4329 42.6602 17.6348C43.0052 17.8301 43.3014 18.0905 43.5488 18.416C43.8027 18.7415 43.998 19.1419 44.1348 19.6172C44.2715 20.0924 44.3398 20.6621 44.3398 21.3262V25.6816C44.3398 25.8965 44.3203 26.0885 44.2812 26.2578C44.2422 26.4206 44.1673 26.5573 44.0566 26.668C43.946 26.7786 43.793 26.8633 43.5977 26.9219C43.4023 26.974 43.1484 27 42.8359 27H37.6211ZM37.1426 21.6289C36.6738 21.6289 36.2799 21.6875 35.9609 21.8047C35.6419 21.9219 35.3848 22.0781 35.1895 22.2734C34.9941 22.4688 34.8542 22.6966 34.7695 22.957C34.6849 23.2109 34.6426 23.4746 34.6426 23.748C34.6426 24.0215 34.6849 24.2819 34.7695 24.5293C34.8542 24.7702 34.9941 24.9818 35.1895 25.1641C35.3848 25.3464 35.6419 25.4896 35.9609 25.5938C36.2799 25.6979 36.6738 25.75 37.1426 25.75V21.6289ZM53.0703 21.1504L54.4375 17.5762C54.4701 17.4915 54.4993 17.4167 54.5254 17.3516C54.5514 17.2799 54.584 17.2181 54.623 17.166C54.6621 17.1139 54.7142 17.0749 54.7793 17.0488C54.8444 17.0163 54.929 17 55.0332 17H56.1758C56.3581 17 56.4492 17.0521 56.4492 17.1562C56.4492 17.2409 56.4167 17.3613 56.3516 17.5176L50.834 30.5352C50.7949 30.6198 50.7624 30.6914 50.7363 30.75C50.7103 30.8151 50.6777 30.8672 50.6387 30.9062C50.6061 30.9453 50.5638 30.9746 50.5117 30.9941C50.4596 31.0137 50.388 31.0234 50.2969 31.0234H49.0371C48.8418 31.0234 48.7441 30.9648 48.7441 30.8477C48.7441 30.7695 48.7832 30.6523 48.8613 30.4961L50.3066 27.3711L45.3359 17.8203C45.3034 17.7552 45.2773 17.6901 45.2578 17.625C45.2448 17.5599 45.2383 17.5013 45.2383 17.4492C45.2383 17.2865 45.3001 17.1725 45.4238 17.1074C45.554 17.0358 45.6842 17 45.8145 17H50.7656C51 17 51.179 17.0488 51.3027 17.1465C51.4329 17.2376 51.5176 17.3288 51.5566 17.4199L53.0703 21.1504ZM67.4258 27C67.0742 27 66.7194 26.9772 66.3613 26.9316C66.0098 26.8861 65.6712 26.8145 65.3457 26.7168C65.0267 26.6126 64.7272 26.4792 64.4473 26.3164C64.1673 26.1536 63.9232 25.9518 63.7148 25.7109C63.513 25.4701 63.3535 25.1868 63.2363 24.8613C63.1191 24.5358 63.0605 24.1615 63.0605 23.7383C63.0605 23.1719 63.168 22.6868 63.3828 22.2832C63.5977 21.8796 63.8841 21.5443 64.2422 21.2773C64.6068 21.0104 65.0234 20.8053 65.4922 20.6621C65.9609 20.5189 66.446 20.4277 66.9473 20.3887V19.7148C66.9473 19.4609 66.9147 19.2591 66.8496 19.1094C66.7845 18.9596 66.6999 18.849 66.5957 18.7773C66.498 18.6992 66.3874 18.6504 66.2637 18.6309C66.1465 18.6048 66.0326 18.5918 65.9219 18.5918C65.7917 18.5918 65.6517 18.6113 65.502 18.6504C65.3587 18.6895 65.2188 18.7383 65.082 18.7969C64.9453 18.849 64.8151 18.9076 64.6914 18.9727C64.5677 19.0378 64.4635 19.0964 64.3789 19.1484C64.3398 19.1745 64.304 19.1973 64.2715 19.2168C64.2389 19.2363 64.2064 19.2461 64.1738 19.2461C64.1152 19.2461 64.0599 19.2038 64.0078 19.1191L63.6758 18.5918C63.6432 18.5462 63.627 18.4974 63.627 18.4453C63.627 18.3932 63.6465 18.3477 63.6855 18.3086C63.7311 18.2695 63.7734 18.237 63.8125 18.2109C64.0273 18.0612 64.3008 17.9082 64.6328 17.752C64.9648 17.5957 65.3359 17.4557 65.7461 17.332C66.1628 17.2083 66.612 17.1074 67.0938 17.0293C67.5755 16.9512 68.0736 16.9121 68.5879 16.9121C69.0762 16.9121 69.5514 16.9284 70.0137 16.9609C70.4824 16.9935 70.9219 17.0651 71.332 17.1758C71.7487 17.2799 72.1263 17.4329 72.4648 17.6348C72.8099 17.8301 73.1061 18.0905 73.3535 18.416C73.6074 18.7415 73.8027 19.1419 73.9395 19.6172C74.0762 20.0924 74.1445 20.6621 74.1445 21.3262V25.6816C74.1445 25.8965 74.125 26.0885 74.0859 26.2578C74.0469 26.4206 73.972 26.5573 73.8613 26.668C73.7507 26.7786 73.5977 26.8633 73.4023 26.9219C73.207 26.974 72.9531 27 72.6406 27H67.4258ZM66.9473 21.6289C66.4785 21.6289 66.0846 21.6875 65.7656 21.8047C65.4466 21.9219 65.1895 22.0781 64.9941 22.2734C64.7988 22.4688 64.6589 22.6966 64.5742 22.957C64.4896 23.2109 64.4473 23.4746 64.4473 23.748C64.4473 24.0215 64.4896 24.2819 64.5742 24.5293C64.6589 24.7702 64.7988 24.9818 64.9941 25.1641C65.1895 25.3464 65.4466 25.4896 65.7656 25.5938C66.0846 25.6979 66.4785 25.75 66.9473 25.75V21.6289ZM81.5859 26.0234C81.0911 26.0234 80.5996 25.9909 80.1113 25.9258C79.623 25.8542 79.1543 25.7435 78.7051 25.5938C78.6986 25.6263 78.6953 25.6589 78.6953 25.6914C78.6953 25.7174 78.6953 25.7467 78.6953 25.7793C78.6953 25.9746 78.7279 26.1569 78.793 26.3262C78.8581 26.4889 78.959 26.6322 79.0957 26.7559C79.2389 26.8796 79.4245 26.9772 79.6523 27.0488C79.8802 27.1204 80.1569 27.1562 80.4824 27.1562C80.8405 27.1562 81.1725 27.1335 81.4785 27.0879C81.7845 27.0488 82.084 27.0065 82.377 26.9609C82.6699 26.9089 82.9629 26.8633 83.2559 26.8242C83.5553 26.7786 83.8711 26.7559 84.2031 26.7559C84.5221 26.7559 84.8346 26.8145 85.1406 26.9316C85.4466 27.0423 85.7168 27.2051 85.9512 27.4199C86.1921 27.6413 86.3841 27.9115 86.5273 28.2305C86.6706 28.5495 86.7422 28.9141 86.7422 29.3242C86.7422 29.6888 86.7064 30.0078 86.6348 30.2812C86.5697 30.5547 86.5013 30.8151 86.4297 31.0625C86.4167 31.0951 86.3906 31.1341 86.3516 31.1797C86.319 31.2253 86.2539 31.248 86.1562 31.248H85.4336C85.3424 31.248 85.2839 31.2253 85.2578 31.1797C85.2318 31.1406 85.2122 31.1081 85.1992 31.082C85.0755 30.776 84.597 30.623 83.7637 30.623C83.4056 30.623 83.0508 30.6426 82.6992 30.6816C82.3477 30.7272 81.9896 30.7728 81.625 30.8184C81.2604 30.8704 80.8796 30.916 80.4824 30.9551C80.0918 31.0007 79.6784 31.0234 79.2422 31.0234C78.6367 31.0234 78.1224 30.9225 77.6992 30.7207C77.2826 30.5189 76.944 30.2617 76.6836 29.9492C76.4232 29.6432 76.2344 29.3047 76.1172 28.9336C76 28.5625 75.9414 28.2109 75.9414 27.8789C75.9414 27.5208 75.9805 27.1953 76.0586 26.9023C76.1432 26.6029 76.2507 26.3327 76.3809 26.0918C76.5111 25.8509 76.6608 25.6361 76.8301 25.4473C76.9993 25.252 77.1686 25.0762 77.3379 24.9199C76.804 24.5553 76.3743 24.0801 76.0488 23.4941C75.7233 22.9082 75.5605 22.1888 75.5605 21.3359C75.5605 20.7565 75.6419 20.2389 75.8047 19.7832C75.9674 19.321 76.1888 18.9173 76.4688 18.5723C76.7552 18.2207 77.0905 17.9245 77.4746 17.6836C77.8587 17.4427 78.2721 17.2474 78.7148 17.0977C79.1641 16.9414 79.6328 16.8307 80.1211 16.7656C80.6094 16.694 81.0977 16.6582 81.5859 16.6582C82.0221 16.6582 82.4681 16.681 82.9238 16.7266C83.3796 16.7721 83.8223 16.8568 84.252 16.9805C84.6882 17.0977 85.0983 17.2572 85.4824 17.459C85.873 17.6608 86.2181 17.918 86.5176 18.2305L87.582 17.1465C87.6536 17.0749 87.722 17.0228 87.7871 16.9902C87.8587 16.9577 87.9238 16.9414 87.9824 16.9414C88.0866 16.9414 88.181 16.9837 88.2656 17.0684L88.7441 17.5762C88.8223 17.6673 88.8613 17.7617 88.8613 17.8594C88.8613 18.0026 88.7799 18.1328 88.6172 18.25L87.2012 19.2461C87.3314 19.526 87.429 19.832 87.4941 20.1641C87.5658 20.4961 87.6016 20.8607 87.6016 21.2578C87.6016 21.9219 87.5169 22.5013 87.3477 22.9961C87.1784 23.4909 86.944 23.9141 86.6445 24.2656C86.3516 24.6172 86.0098 24.9069 85.6191 25.1348C85.2285 25.3626 84.8086 25.5417 84.3594 25.6719C83.9167 25.8021 83.4577 25.8932 82.9824 25.9453C82.5072 25.9974 82.0417 26.0234 81.5859 26.0234ZM84.8477 20.2617C84.8151 20.2292 84.7988 20.1803 84.7988 20.1152C84.7988 20.0371 84.8281 19.9688 84.8867 19.9102L85.5117 19.2656C85.3815 19.168 85.2383 19.0996 85.082 19.0605C84.9323 19.0215 84.7793 19.002 84.623 19.002C84.4668 19.002 84.291 19.028 84.0957 19.0801C83.9069 19.1257 83.7246 19.2298 83.5488 19.3926C83.3796 19.5553 83.2363 19.793 83.1191 20.1055C83.002 20.4115 82.9434 20.8216 82.9434 21.3359C82.9434 21.8503 82.9889 22.2637 83.0801 22.5762C83.1777 22.8822 83.3047 23.1165 83.4609 23.2793C83.6172 23.4421 83.7962 23.5495 83.998 23.6016C84.1999 23.6536 84.4082 23.6797 84.623 23.6797C84.8249 23.6797 85.0234 23.6471 85.2188 23.582C85.4141 23.5104 85.5833 23.3867 85.7266 23.2109C85.8763 23.0286 85.9967 22.7845 86.0879 22.4785C86.179 22.166 86.2246 21.7656 86.2246 21.2773C86.2246 20.7891 86.1693 20.3854 86.0586 20.0664L85.4043 20.5254C85.3522 20.5579 85.3001 20.5742 85.248 20.5742C85.1634 20.5742 85.0951 20.5417 85.043 20.4766L84.8477 20.2617ZM93.4219 27C93.0703 27 92.7155 26.9772 92.3574 26.9316C92.0059 26.8861 91.6673 26.8145 91.3418 26.7168C91.0228 26.6126 90.7233 26.4792 90.4434 26.3164C90.1634 26.1536 89.9193 25.9518 89.7109 25.7109C89.5091 25.4701 89.3496 25.1868 89.2324 24.8613C89.1152 24.5358 89.0566 24.1615 89.0566 23.7383C89.0566 23.1719 89.1641 22.6868 89.3789 22.2832C89.5938 21.8796 89.8802 21.5443 90.2383 21.2773C90.6029 21.0104 91.0195 20.8053 91.4883 20.6621C91.957 20.5189 92.4421 20.4277 92.9434 20.3887V19.7148C92.9434 19.4609 92.9108 19.2591 92.8457 19.1094C92.7806 18.9596 92.696 18.849 92.5918 18.7773C92.4941 18.6992 92.3835 18.6504 92.2598 18.6309C92.1426 18.6048 92.0286 18.5918 91.918 18.5918C91.7878 18.5918 91.6478 18.6113 91.498 18.6504C91.3548 18.6895 91.2148 18.7383 91.0781 18.7969C90.9414 18.849 90.8112 18.9076 90.6875 18.9727C90.5638 19.0378 90.4596 19.0964 90.375 19.1484C90.3359 19.1745 90.3001 19.1973 90.2676 19.2168C90.235 19.2363 90.2025 19.2461 90.1699 19.2461C90.1113 19.2461 90.056 19.2038 90.0039 19.1191L89.6719 18.5918C89.6393 18.5462 89.623 18.4974 89.623 18.4453C89.623 18.3932 89.6426 18.3477 89.6816 18.3086C89.7272 18.2695 89.7695 18.237 89.8086 18.2109C90.0234 18.0612 90.2969 17.9082 90.6289 17.752C90.9609 17.5957 91.332 17.4557 91.7422 17.332C92.1589 17.2083 92.6081 17.1074 93.0898 17.0293C93.5716 16.9512 94.0697 16.9121 94.584 16.9121C95.0723 16.9121 95.5475 16.9284 96.0098 16.9609C96.4785 16.9935 96.918 17.0651 97.3281 17.1758C97.7448 17.2799 98.1224 17.4329 98.4609 17.6348C98.806 17.8301 99.1022 18.0905 99.3496 18.416C99.6035 18.7415 99.7988 19.1419 99.9355 19.6172C100.072 20.0924 100.141 20.6621 100.141 21.3262V25.6816C100.141 25.8965 100.121 26.0885 100.082 26.2578C100.043 26.4206 99.9681 26.5573 99.8574 26.668C99.7467 26.7786 99.5938 26.8633 99.3984 26.9219C99.2031 26.974 98.9492 27 98.6367 27H93.4219ZM92.9434 21.6289C92.4746 21.6289 92.0807 21.6875 91.7617 21.8047C91.4427 21.9219 91.1855 22.0781 90.9902 22.2734C90.7949 22.4688 90.6549 22.6966 90.5703 22.957C90.4857 23.2109 90.4434 23.4746 90.4434 23.748C90.4434 24.0215 90.4857 24.2819 90.5703 24.5293C90.6549 24.7702 90.7949 24.9818 90.9902 25.1641C91.1855 25.3464 91.4427 25.4896 91.7617 25.5938C92.0807 25.6979 92.4746 25.75 92.9434 25.75V21.6289ZM101.938 18.3574C101.938 18.1361 101.957 17.9408 101.996 17.7715C102.035 17.5957 102.11 17.4525 102.221 17.3418C102.331 17.2311 102.484 17.1465 102.68 17.0879C102.875 17.0293 103.129 17 103.441 17H107.719C108.018 17 108.259 17.0293 108.441 17.0879C108.63 17.14 108.777 17.2214 108.881 17.332C108.985 17.4427 109.053 17.5827 109.086 17.752C109.118 17.9212 109.135 18.123 109.135 18.3574V25.6621C109.135 25.8835 109.118 26.0788 109.086 26.248C109.053 26.4108 108.985 26.5508 108.881 26.668C108.777 26.7786 108.63 26.8633 108.441 26.9219C108.259 26.974 108.018 27 107.719 27H103.441C103.129 27 102.875 26.9707 102.68 26.9121C102.484 26.8535 102.331 26.7689 102.221 26.6582C102.11 26.5475 102.035 26.4076 101.996 26.2383C101.957 26.069 101.938 25.8704 101.938 25.6426V18.3574ZM102.299 12.8203C102.299 12.3711 102.383 11.9479 102.553 11.5508C102.729 11.1536 102.963 10.8086 103.256 10.5156C103.549 10.2227 103.894 9.99154 104.291 9.82227C104.688 9.64648 105.111 9.55859 105.561 9.55859C106.003 9.55859 106.42 9.64648 106.811 9.82227C107.208 9.99154 107.553 10.2227 107.846 10.5156C108.139 10.8086 108.37 11.1536 108.539 11.5508C108.715 11.9479 108.803 12.3711 108.803 12.8203C108.803 13.263 108.715 13.6829 108.539 14.0801C108.37 14.4707 108.139 14.8125 107.846 15.1055C107.553 15.3984 107.208 15.6328 106.811 15.8086C106.42 15.9779 106.003 16.0625 105.561 16.0625C105.111 16.0625 104.688 15.9779 104.291 15.8086C103.894 15.6328 103.549 15.3984 103.256 15.1055C102.963 14.8125 102.729 14.4707 102.553 14.0801C102.383 13.6829 102.299 13.263 102.299 12.8203ZM110.941 18.3574C110.941 18.1361 110.961 17.9408 111 17.7715C111.039 17.5957 111.114 17.4525 111.225 17.3418C111.335 17.2311 111.488 17.1465 111.684 17.0879C111.879 17.0293 112.133 17 112.445 17H116.439C116.732 17 116.983 17.0293 117.191 17.0879C117.406 17.1465 117.559 17.2474 117.65 17.3906C117.735 17.332 117.836 17.2702 117.953 17.2051C118.077 17.1335 118.21 17.0684 118.354 17.0098C118.497 16.9512 118.65 16.9023 118.812 16.8633C118.975 16.8242 119.145 16.8047 119.32 16.8047C119.945 16.8047 120.43 17.0195 120.775 17.4492C121.127 17.8789 121.303 18.5104 121.303 19.3438V26.541C121.303 26.6517 121.286 26.7396 121.254 26.8047C121.228 26.8633 121.192 26.9089 121.146 26.9414C121.107 26.9674 121.059 26.9837 121 26.9902C120.941 26.9967 120.883 27 120.824 27H120.199C120.03 27 119.919 26.9512 119.867 26.8535C119.822 26.7559 119.799 26.6517 119.799 26.541V19.2461C119.799 18.875 119.73 18.5918 119.594 18.3965C119.464 18.2012 119.252 18.1035 118.959 18.1035C118.809 18.1035 118.656 18.1458 118.5 18.2305C118.35 18.3086 118.23 18.3932 118.139 18.4844V25.6328C118.139 25.8607 118.119 26.0592 118.08 26.2285C118.041 26.3978 117.966 26.541 117.855 26.6582C117.745 26.7689 117.592 26.8535 117.396 26.9121C117.201 26.9707 116.947 27 116.635 27H112.445C112.133 27 111.879 26.9707 111.684 26.9121C111.488 26.8535 111.335 26.7689 111.225 26.6582C111.114 26.5475 111.039 26.4076 111 26.2383C110.961 26.069 110.941 25.8704 110.941 25.6426V18.3574Z" fill="#202733"/>
</svg>
