<svg width="210" height="61" viewBox="0 0 210 61" fill="none" xmlns="http://www.w3.org/2000/svg">
<rect width="210" height="61" fill="#86BE37"/>
<path d="M27.3477 23.0156C27.3477 22.6738 27.377 22.376 27.4355 22.1221C27.4941 21.8682 27.6064 21.6582 27.7725 21.4922C27.9385 21.3164 28.168 21.1846 28.4609 21.0967C28.7539 21.0088 29.1348 20.9648 29.6035 20.9648H36.1367C36.8105 20.9648 37.4795 21.0088 38.1436 21.0967C38.8076 21.1748 39.4424 21.3115 40.0479 21.5068C40.6631 21.7021 41.2295 21.9561 41.7471 22.2686C42.2744 22.5811 42.7285 22.9717 43.1094 23.4404C43.5 23.8994 43.8027 24.4414 44.0176 25.0664C44.2422 25.6816 44.3545 26.3945 44.3545 27.2051C44.3545 28.4062 44.1885 29.4219 43.8564 30.252C43.5342 31.0723 43.0947 31.751 42.5381 32.2881C41.9814 32.8252 41.332 33.2354 40.5898 33.5186C39.8574 33.8018 39.0859 34.0068 38.2754 34.1338V39.627C38.2754 39.8516 38.2559 40.1006 38.2168 40.374C38.1777 40.6475 38.0801 40.9062 37.9238 41.1504C37.7676 41.3848 37.5283 41.585 37.2061 41.751C36.8838 41.917 36.4395 42 35.873 42H29.6035C29.1348 42 28.7539 41.9561 28.4609 41.8682C28.168 41.7803 27.9385 41.6533 27.7725 41.4873C27.6064 41.3213 27.4941 41.1113 27.4355 40.8574C27.377 40.6035 27.3477 40.3057 27.3477 39.9639V23.0156ZM42.2891 27.4248C42.2891 26.8389 42.2109 26.3018 42.0547 25.8135C41.8984 25.3154 41.6592 24.8809 41.3369 24.5098C41.0146 24.1387 40.5996 23.8311 40.0918 23.5869C39.584 23.3428 38.9785 23.1768 38.2754 23.0889V32.1855C38.9785 32.0781 39.584 31.8828 40.0918 31.5996C40.5996 31.3164 41.0146 30.9648 41.3369 30.5449C41.6592 30.125 41.8984 29.6514 42.0547 29.124C42.2109 28.5869 42.2891 28.0205 42.2891 27.4248ZM46.3027 20.042C46.3027 19.71 46.332 19.417 46.3906 19.1631C46.4492 18.8994 46.5615 18.6846 46.7275 18.5186C46.8936 18.3525 47.123 18.2256 47.416 18.1377C47.709 18.0498 48.0898 18.0059 48.5586 18.0059H54.9746C55.4238 18.0059 55.7852 18.0498 56.0586 18.1377C56.332 18.2158 56.5469 18.3379 56.7031 18.5039C56.8594 18.6699 56.9619 18.8799 57.0107 19.1338C57.0693 19.3877 57.0986 19.6855 57.0986 20.0273V39.9932C57.0986 40.3252 57.0693 40.6182 57.0107 40.8721C56.9521 41.1162 56.8447 41.3262 56.6885 41.502C56.5322 41.668 56.3125 41.7949 56.0293 41.8828C55.7559 41.9609 55.3945 42 54.9453 42H48.5586C48.0898 42 47.709 41.9561 47.416 41.8682C47.123 41.7803 46.8936 41.6533 46.7275 41.4873C46.5615 41.3213 46.4492 41.1113 46.3906 40.8574C46.332 40.6035 46.3027 40.3057 46.3027 39.9639V20.042ZM65.9316 42C65.4043 42 64.8721 41.9658 64.335 41.8975C63.8076 41.8291 63.2998 41.7217 62.8115 41.5752C62.333 41.4189 61.8838 41.2188 61.4639 40.9746C61.0439 40.7305 60.6777 40.4277 60.3652 40.0664C60.0625 39.7051 59.8232 39.2803 59.6475 38.792C59.4717 38.3037 59.3838 37.7422 59.3838 37.1074C59.3838 36.2578 59.5449 35.5303 59.8672 34.9248C60.1895 34.3193 60.6191 33.8164 61.1562 33.416C61.7031 33.0156 62.3281 32.708 63.0312 32.4932C63.7344 32.2783 64.4619 32.1416 65.2139 32.083V31.0723C65.2139 30.6914 65.165 30.3887 65.0674 30.1641C64.9697 29.9395 64.8428 29.7734 64.6865 29.666C64.54 29.5488 64.374 29.4756 64.1885 29.4463C64.0127 29.4072 63.8418 29.3877 63.6758 29.3877C63.4805 29.3877 63.2705 29.417 63.0459 29.4756C62.8311 29.5342 62.6211 29.6074 62.416 29.6953C62.2109 29.7734 62.0156 29.8613 61.8301 29.959C61.6445 30.0566 61.4883 30.1445 61.3613 30.2227C61.3027 30.2617 61.249 30.2959 61.2002 30.3252C61.1514 30.3545 61.1025 30.3691 61.0537 30.3691C60.9658 30.3691 60.8828 30.3057 60.8047 30.1787L60.3066 29.3877C60.2578 29.3193 60.2334 29.2461 60.2334 29.168C60.2334 29.0898 60.2627 29.0215 60.3213 28.9629C60.3896 28.9043 60.4531 28.8555 60.5117 28.8164C60.834 28.5918 61.2441 28.3623 61.7422 28.1279C62.2402 27.8936 62.7969 27.6836 63.4121 27.498C64.0371 27.3125 64.7109 27.1611 65.4336 27.0439C66.1562 26.9268 66.9033 26.8682 67.6748 26.8682C68.4072 26.8682 69.1201 26.8926 69.8135 26.9414C70.5166 26.9902 71.1758 27.0977 71.791 27.2637C72.416 27.4199 72.9824 27.6494 73.4902 27.9521C74.0078 28.2451 74.4521 28.6357 74.8232 29.124C75.2041 29.6123 75.4971 30.2129 75.7021 30.9258C75.9072 31.6387 76.0098 32.4932 76.0098 33.4893V40.0225C76.0098 40.3447 75.9805 40.6328 75.9219 40.8867C75.8633 41.1309 75.751 41.3359 75.585 41.502C75.4189 41.668 75.1895 41.7949 74.8965 41.8828C74.6035 41.9609 74.2227 42 73.7539 42H65.9316ZM65.2139 33.9434C64.5107 33.9434 63.9199 34.0312 63.4414 34.207C62.9629 34.3828 62.5771 34.6172 62.2842 34.9102C61.9912 35.2031 61.7812 35.5449 61.6543 35.9355C61.5273 36.3164 61.4639 36.7119 61.4639 37.1221C61.4639 37.5322 61.5273 37.9229 61.6543 38.2939C61.7812 38.6553 61.9912 38.9727 62.2842 39.2461C62.5771 39.5195 62.9629 39.7344 63.4414 39.8906C63.9199 40.0469 64.5107 40.125 65.2139 40.125V33.9434ZM89.1055 33.2256L91.1562 27.8643C91.2051 27.7373 91.249 27.625 91.2881 27.5273C91.3271 27.4199 91.376 27.3271 91.4346 27.249C91.4932 27.1709 91.5713 27.1123 91.6689 27.0732C91.7666 27.0244 91.8936 27 92.0498 27H93.7637C94.0371 27 94.1738 27.0781 94.1738 27.2344C94.1738 27.3613 94.125 27.542 94.0273 27.7764L85.751 47.3027C85.6924 47.4297 85.6436 47.5371 85.6045 47.625C85.5654 47.7227 85.5166 47.8008 85.458 47.8594C85.4092 47.918 85.3457 47.9619 85.2676 47.9912C85.1895 48.0205 85.082 48.0352 84.9453 48.0352H83.0557C82.7627 48.0352 82.6162 47.9473 82.6162 47.7715C82.6162 47.6543 82.6748 47.4785 82.792 47.2441L84.96 42.5566L77.5039 28.2305C77.4551 28.1328 77.416 28.0352 77.3867 27.9375C77.3672 27.8398 77.3574 27.752 77.3574 27.6738C77.3574 27.4297 77.4502 27.2588 77.6357 27.1611C77.8311 27.0537 78.0264 27 78.2217 27H85.6484C86 27 86.2686 27.0732 86.4541 27.2197C86.6494 27.3564 86.7764 27.4932 86.835 27.6299L89.1055 33.2256ZM118.314 23.1914C118.1 23.1914 117.87 23.2256 117.626 23.2939C117.392 23.3623 117.157 23.4941 116.923 23.6895C116.688 23.8848 116.459 24.1582 116.234 24.5098C116.02 24.8516 115.829 25.3057 115.663 25.8721C115.507 26.4385 115.38 27.127 115.282 27.9375C115.185 28.7383 115.136 29.6953 115.136 30.8086C115.136 31.9121 115.185 32.874 115.282 33.6943C115.38 34.5146 115.507 35.2178 115.663 35.8037C115.829 36.3896 116.02 36.873 116.234 37.2539C116.459 37.625 116.688 37.918 116.923 38.1328C117.157 38.3477 117.392 38.499 117.626 38.5869C117.87 38.665 118.1 38.7041 118.314 38.7041C118.607 38.7041 118.881 38.6406 119.135 38.5137V32.9033C119.135 32.7471 119.169 32.5957 119.237 32.4492C119.306 32.293 119.467 32.2148 119.721 32.2148H121.259C121.347 32.2148 121.435 32.2197 121.522 32.2295C121.61 32.2393 121.688 32.2686 121.757 32.3174C121.825 32.3564 121.879 32.4248 121.918 32.5225C121.957 32.6104 121.977 32.7373 121.977 32.9033V41.3115C121.977 41.4775 121.957 41.6094 121.918 41.707C121.879 41.7949 121.825 41.8633 121.757 41.9121C121.688 41.9512 121.61 41.9756 121.522 41.9854C121.435 41.9951 121.347 42 121.259 42H119.721C119.594 42 119.491 41.9805 119.413 41.9414C119.345 41.9023 119.286 41.8486 119.237 41.7803C119.198 41.7119 119.169 41.6387 119.149 41.5605C119.14 41.4727 119.135 41.3896 119.135 41.3115V40.8867C118.822 41.1113 118.476 41.3262 118.095 41.5312C117.714 41.7363 117.294 41.917 116.835 42.0732C116.386 42.2295 115.897 42.3516 115.37 42.4395C114.843 42.5273 114.276 42.5713 113.671 42.5713C112.958 42.5713 112.226 42.5078 111.474 42.3809C110.722 42.2539 109.989 42.0293 109.276 41.707C108.573 41.375 107.904 40.9258 107.27 40.3594C106.635 39.793 106.078 39.0752 105.6 38.2061C105.131 37.3369 104.755 36.2969 104.472 35.0859C104.198 33.8652 104.062 32.4395 104.062 30.8086C104.062 29.4219 104.198 28.2012 104.472 27.1465C104.755 26.082 105.136 25.1592 105.614 24.3779C106.093 23.5967 106.649 22.9424 107.284 22.415C107.929 21.8877 108.612 21.4678 109.335 21.1553C110.058 20.833 110.8 20.6084 111.562 20.4814C112.333 20.3447 113.085 20.2764 113.817 20.2764C114.618 20.2764 115.38 20.3398 116.103 20.4668C116.825 20.5938 117.484 20.7549 118.08 20.9502C118.686 21.1455 119.223 21.3652 119.691 21.6094C120.16 21.8535 120.546 22.0928 120.849 22.3271C120.878 22.3564 120.912 22.3906 120.951 22.4297C120.99 22.459 121.01 22.498 121.01 22.5469C121.01 22.5859 120.995 22.6348 120.966 22.6934L120.336 23.6895C120.277 23.7773 120.209 23.8213 120.131 23.8213C120.072 23.8213 119.989 23.792 119.882 23.7334C119.784 23.665 119.657 23.5918 119.501 23.5137C119.345 23.4258 119.169 23.3525 118.974 23.2939C118.778 23.2256 118.559 23.1914 118.314 23.1914ZM130.502 42C129.975 42 129.442 41.9658 128.905 41.8975C128.378 41.8291 127.87 41.7217 127.382 41.5752C126.903 41.4189 126.454 41.2188 126.034 40.9746C125.614 40.7305 125.248 40.4277 124.936 40.0664C124.633 39.7051 124.394 39.2803 124.218 38.792C124.042 38.3037 123.954 37.7422 123.954 37.1074C123.954 36.2578 124.115 35.5303 124.438 34.9248C124.76 34.3193 125.189 33.8164 125.727 33.416C126.273 33.0156 126.898 32.708 127.602 32.4932C128.305 32.2783 129.032 32.1416 129.784 32.083V31.0723C129.784 30.6914 129.735 30.3887 129.638 30.1641C129.54 29.9395 129.413 29.7734 129.257 29.666C129.11 29.5488 128.944 29.4756 128.759 29.4463C128.583 29.4072 128.412 29.3877 128.246 29.3877C128.051 29.3877 127.841 29.417 127.616 29.4756C127.401 29.5342 127.191 29.6074 126.986 29.6953C126.781 29.7734 126.586 29.8613 126.4 29.959C126.215 30.0566 126.059 30.1445 125.932 30.2227C125.873 30.2617 125.819 30.2959 125.771 30.3252C125.722 30.3545 125.673 30.3691 125.624 30.3691C125.536 30.3691 125.453 30.3057 125.375 30.1787L124.877 29.3877C124.828 29.3193 124.804 29.2461 124.804 29.168C124.804 29.0898 124.833 29.0215 124.892 28.9629C124.96 28.9043 125.023 28.8555 125.082 28.8164C125.404 28.5918 125.814 28.3623 126.312 28.1279C126.811 27.8936 127.367 27.6836 127.982 27.498C128.607 27.3125 129.281 27.1611 130.004 27.0439C130.727 26.9268 131.474 26.8682 132.245 26.8682C132.978 26.8682 133.69 26.8926 134.384 26.9414C135.087 26.9902 135.746 27.0977 136.361 27.2637C136.986 27.4199 137.553 27.6494 138.061 27.9521C138.578 28.2451 139.022 28.6357 139.394 29.124C139.774 29.6123 140.067 30.2129 140.272 30.9258C140.478 31.6387 140.58 32.4932 140.58 33.4893V40.0225C140.58 40.3447 140.551 40.6328 140.492 40.8867C140.434 41.1309 140.321 41.3359 140.155 41.502C139.989 41.668 139.76 41.7949 139.467 41.8828C139.174 41.9609 138.793 42 138.324 42H130.502ZM129.784 33.9434C129.081 33.9434 128.49 34.0312 128.012 34.207C127.533 34.3828 127.147 34.6172 126.854 34.9102C126.562 35.2031 126.352 35.5449 126.225 35.9355C126.098 36.3164 126.034 36.7119 126.034 37.1221C126.034 37.5322 126.098 37.9229 126.225 38.2939C126.352 38.6553 126.562 38.9727 126.854 39.2461C127.147 39.5195 127.533 39.7344 128.012 39.8906C128.49 40.0469 129.081 40.125 129.784 40.125V33.9434ZM143.275 29.0361C143.275 28.7041 143.305 28.4111 143.363 28.1572C143.422 27.8936 143.534 27.6787 143.7 27.5127C143.866 27.3467 144.096 27.2197 144.389 27.1318C144.682 27.0439 145.062 27 145.531 27H151.522C151.962 27 152.333 27.0439 152.636 27.1318C152.938 27.2197 153.158 27.3711 153.295 27.5859C153.422 27.4883 153.578 27.3906 153.764 27.293C153.949 27.1855 154.149 27.0879 154.364 27C154.589 26.9121 154.823 26.8438 155.067 26.7949C155.321 26.7363 155.58 26.707 155.844 26.707C156.742 26.707 157.45 27.0049 157.968 27.6006C158.104 27.5029 158.251 27.4053 158.407 27.3076C158.603 27.1904 158.817 27.0879 159.052 27C159.286 26.9121 159.535 26.8438 159.799 26.7949C160.062 26.7363 160.326 26.707 160.59 26.707C161.527 26.707 162.255 27.0293 162.772 27.6738C163.3 28.3184 163.563 29.2656 163.563 30.5156V41.3115C163.563 41.4775 163.539 41.6094 163.49 41.707C163.451 41.7949 163.397 41.8633 163.329 41.9121C163.261 41.9512 163.183 41.9756 163.095 41.9854C163.007 41.9951 162.919 42 162.831 42H161.908C161.654 42 161.488 41.9268 161.41 41.7803C161.342 41.6338 161.308 41.4775 161.308 41.3115V30.3691C161.308 29.8125 161.205 29.3877 161 29.0947C160.805 28.8018 160.487 28.6553 160.048 28.6553C159.931 28.6553 159.809 28.6797 159.682 28.7285C159.555 28.7676 159.428 28.8213 159.301 28.8896C159.174 28.958 159.057 29.0312 158.949 29.1094C158.861 29.1777 158.783 29.2412 158.715 29.2998C158.783 29.6709 158.817 30.0762 158.817 30.5156V41.3115C158.817 41.4775 158.793 41.6094 158.744 41.707C158.705 41.7949 158.651 41.8633 158.583 41.9121C158.524 41.9512 158.451 41.9756 158.363 41.9854C158.275 41.9951 158.188 42 158.1 42H157.162C156.908 42 156.742 41.9268 156.664 41.7803C156.596 41.6338 156.562 41.4775 156.562 41.3115V30.3691C156.562 29.8125 156.459 29.3877 156.254 29.0947C156.059 28.8018 155.741 28.6553 155.302 28.6553C155.077 28.6553 154.848 28.7188 154.613 28.8457C154.389 28.9629 154.208 29.0898 154.071 29.2266V39.9492C154.071 40.291 154.042 40.5889 153.983 40.8428C153.925 41.0967 153.812 41.3115 153.646 41.4873C153.48 41.6533 153.251 41.7803 152.958 41.8682C152.665 41.9561 152.284 42 151.815 42H145.531C145.062 42 144.682 41.9561 144.389 41.8682C144.096 41.7803 143.866 41.6533 143.7 41.4873C143.534 41.3213 143.422 41.1113 143.363 40.8574C143.305 40.6035 143.275 40.3057 143.275 39.9639V29.0361ZM179.545 39.5684C179.809 39.5684 180.048 39.5342 180.263 39.4658C180.478 39.3877 180.668 39.3047 180.834 39.2168C181.01 39.1289 181.151 39.0508 181.259 38.9824C181.376 38.9043 181.464 38.8652 181.522 38.8652C181.61 38.8652 181.669 38.8799 181.698 38.9092C181.737 38.9385 181.781 38.9922 181.83 39.0703L182.343 39.8613C182.392 39.9395 182.416 40.0078 182.416 40.0664C182.416 40.1348 182.396 40.1885 182.357 40.2275C182.318 40.2666 182.279 40.3008 182.24 40.3301C181.918 40.5547 181.522 40.7988 181.054 41.0625C180.585 41.3164 180.038 41.5508 179.413 41.7656C178.798 41.9805 178.1 42.1562 177.318 42.293C176.537 42.4395 175.678 42.5127 174.74 42.5127C174.008 42.5127 173.275 42.4541 172.543 42.3369C171.811 42.2197 171.107 42.0342 170.434 41.7803C169.77 41.5264 169.149 41.1943 168.573 40.7842C167.997 40.374 167.494 39.8711 167.064 39.2754C166.645 38.6797 166.312 37.9912 166.068 37.21C165.824 36.4189 165.702 35.5156 165.702 34.5C165.702 33.5039 165.824 32.6152 166.068 31.834C166.312 31.043 166.645 30.3496 167.064 29.7539C167.494 29.1582 167.997 28.6553 168.573 28.2451C169.149 27.8252 169.77 27.4883 170.434 27.2344C171.107 26.9707 171.811 26.7803 172.543 26.6631C173.275 26.5459 174.008 26.4873 174.74 26.4873C175.961 26.4873 177.094 26.624 178.139 26.8975C179.193 27.1709 180.106 27.6201 180.878 28.2451C181.649 28.8701 182.255 29.6904 182.694 30.7061C183.134 31.7217 183.354 32.9668 183.354 34.4414V35.2617C183.354 35.4375 183.31 35.5742 183.222 35.6719C183.134 35.7695 182.987 35.8184 182.782 35.8184H176.718C176.796 36.541 176.933 37.1465 177.128 37.6348C177.333 38.1133 177.562 38.499 177.816 38.792C178.08 39.0752 178.363 39.2754 178.666 39.3926C178.969 39.5098 179.262 39.5684 179.545 39.5684ZM181.273 34.0166C181.273 33.2354 181.21 32.5908 181.083 32.083C180.966 31.5654 180.805 31.1553 180.6 30.8525C180.395 30.54 180.15 30.3203 179.867 30.1934C179.594 30.0664 179.306 30.0029 179.003 30.0029C178.778 30.0029 178.534 30.0469 178.271 30.1348C178.007 30.2227 177.758 30.4082 177.523 30.6914C177.299 30.9746 177.104 31.3799 176.938 31.9072C176.781 32.4346 176.688 33.1377 176.659 34.0166H181.273Z" fill="#202733"/>
</svg>
